HIERARCHY
ROOT Hips
{
 OFFSET 0.000000 0.000000 0.000000
 CHANNELS 6 Xposition Yposition Zposition Yrotation Xrotation Zrotation
 JOINT Chest
 {
  OFFSET 0.000000 9.585900 0.002600
  CHANNELS 3 Yrotation Xrotation Zrotation
  JOINT Chest2
  {
   OFFSET 0.000000 9.601200 -0.005300
   CHANNELS 3 Yrotation Xrotation Zrotation
   JOINT Chest3
   {
    OFFSET 0.000000 9.561800 0.000000
    CHANNELS 3 Yrotation Xrotation Zrotation
    JOINT Chest4
    {
     OFFSET 0.000000 9.552100 0.000000
     CHANNELS 3 Yrotation Xrotation Zrotation
     JOINT Neck
     {
      OFFSET 0.000000 14.453000 0.000000
      CHANNELS 3 Yrotation Xrotation Zrotation
      JOINT Head
      {
       OFFSET 0.000000 8.936500 -0.011300
       CHANNELS 3 Yrotation Xrotation Zrotation
       End Site
       {
        OFFSET 0.000000 17.073600 -0.006000
       }
      }
     }
     JOINT RightCollar
     {
      OFFSET -2.921100 9.558500 0.000000
      CHANNELS 3 Yrotation Xrotation Zrotation
      JOINT RightShoulder
      {
       OFFSET -13.519700 0.000000 0.000000
       CHANNELS 3 Yrotation Xrotation Zrotation
       JOINT RightElbow
       {
        OFFSET 0.000000 -29.696600 0.000000
        CHANNELS 3 Yrotation Xrotation Zrotation
        JOINT RightWrist
        {
         OFFSET 0.000000 -24.004700 0.000000
         CHANNELS 3 Yrotation Xrotation Zrotation
         End Site
         {
          OFFSET 0.000000 -17.728500 0.000000
         }
        }
       }
      }
     }
     JOINT LeftCollar
     {
      OFFSET 2.921100 9.558500 0.000000
      CHANNELS 3 Yrotation Xrotation Zrotation
      JOINT LeftShoulder
      {
       OFFSET 13.519700 0.000000 0.000000
       CHANNELS 3 Yrotation Xrotation Zrotation
       JOINT LeftElbow
       {
        OFFSET 0.000000 -29.696600 0.000000
        CHANNELS 3 Yrotation Xrotation Zrotation
        JOINT LeftWrist
        {
         OFFSET 0.000000 -24.004700 0.000000
         CHANNELS 3 Yrotation Xrotation Zrotation
         End Site
         {
          OFFSET 0.000000 -17.728500 0.000000
         }
        }
       }
      }
     }
    }
   }
  }
 }
 JOINT RightHip
 {
  OFFSET -7.771700 -0.012900 -0.001300
  CHANNELS 3 Yrotation Xrotation Zrotation
  JOINT RightKnee
  {
   OFFSET 0.000000 -40.869800 0.001200
   CHANNELS 3 Yrotation Xrotation Zrotation
   JOINT RightAnkle
   {
    OFFSET 0.000000 -39.717900 0.002100
    CHANNELS 3 Yrotation Xrotation Zrotation
    JOINT RightToe
    {
     OFFSET 0.000000 -4.965400 11.033500
     CHANNELS 3 Yrotation Xrotation Zrotation
     End Site
     {
      OFFSET 0.000000 -1.423100 5.872300
     }
    }
   }
  }
 }
 JOINT LeftHip
 {
  OFFSET 7.771700 -0.012900 -0.001300
  CHANNELS 3 Yrotation Xrotation Zrotation
  JOINT LeftKnee
  {
   OFFSET 0.000000 -40.869800 0.001200
   CHANNELS 3 Yrotation Xrotation Zrotation
   JOINT LeftAnkle
   {
    OFFSET 0.000000 -39.717900 0.002100
    CHANNELS 3 Yrotation Xrotation Zrotation
    JOINT LeftToe
    {
     OFFSET 0.000000 -4.965400 11.033500
     CHANNELS 3 Yrotation Xrotation Zrotation
     End Site
     {
      OFFSET 0.000000 -1.423100 5.872300
     }
    }
   }
  }
 }
}
MOTION
Frames: 5
Frame Time: 0.008333
0.000000 85.388000 0.000000 0.000000 -5.767877 0.000000 0.000000 11.653817 0.000000 0.000000 -5.885947 0.000000 0.000000 -0.000000 0.000000 0.000000 -0.000000 0.000000 0.000000 12.528835 0.000000 0.000000 0.711642 0.000000 0.000000 -0.000000 0.000000 0.000000 0.000000 -90.000000 0.000000 -2.309062 0.000000 0.000000 2.309062 0.000000 0.000000 -0.000000 0.000000 0.000000 -0.000000 90.000000 0.000000 -2.309062 0.000000 0.000000 2.309062 0.000000 0.000000 8.520406 0.000000 0.000000 1.905762 0.000000 -0.000000 -4.658285 0.000000 0.000000 -0.000000 0.000000 0.000000 8.520406 0.000000 0.000000 1.905762 0.000000 -0.000000 -4.658285 0.000000 0.000000 -0.000000 0.000000
-19.298010 58.086089 71.967580 169.697747 -30.460670 -3.500052 4.520075 18.767529 6.002175 0.417163 2.310601 0.468936 0.698799 3.869650 0.766924 3.442630 16.281279 3.764660 1.837407 14.050495 -2.253831 4.329646 -9.581477 -4.952480 2.579807 -4.069150 -1.318656 8.232132 -13.681567 -17.583238 -85.446774 -87.245729 121.269696 14.016462 -9.252039 -34.060150 -6.433835 -4.435322 -2.550547 10.728999 -2.454338 5.108865 39.890769 -76.150440 -80.346013 -3.398753 5.808474 7.143289 11.185156 -41.538699 0.696942 -5.237088 65.557953 -3.742079 4.797814 9.592706 6.990607 -0.052106 0.138502 -0.036362 -5.578638 -47.496262 8.645711 28.896294 59.525759 29.141502 -8.043810 41.314848 4.224529 0.591773 -22.049662 -7.554279
-19.301121 58.087255 71.969915 169.699822 -30.461202 -3.504840 4.518023 18.758451 6.007629 0.416914 2.279662 0.478163 0.693926 3.851165 0.763810 3.441530 16.262434 3.776503 1.946634 13.793407 -2.382142 4.600482 -10.043795 -5.251440 2.579581 -3.991140 -1.333582 8.236731 -13.677859 -17.586348 -84.576141 -87.205800 120.426484 13.992260 -9.258081 -34.064615 -6.397359 -4.342289 -2.609198 10.731557 -2.368437 5.317284 38.755446 -75.377200 -79.234608 -3.230304 5.728995 7.320928 11.188687 -41.535066 0.691123 -5.228173 65.548440 -3.726020 4.801091 9.598870 6.995688 -0.051792 0.136335 -0.036783 -5.575874 -47.496776 8.645753 28.879190 59.528256 29.124872 -8.024525 41.322144 4.239393 0.591092 -22.055821 -7.557015
-19.306834 58.088582 71.972875 169.704454 -30.456048 -3.499522 4.509921 18.720937 6.010783 0.412215 2.281826 0.479467 0.691065 3.788688 0.776969 3.435746 16.293925 3.773218 2.086231 13.449456 -2.525994 4.942389 -10.663139 -5.599319 2.584907 -3.917561 -1.348141 8.244180 -13.677162 -17.589932 -83.581440 -87.158112 119.456981 13.968111 -9.260203 -34.070938 -6.365887 -4.269297 -2.654120 10.753892 -2.249551 5.546955 37.424870 -74.374914 -77.934316 -2.973732 5.634633 7.613136 11.201616 -41.535934 0.667357 -5.213809 65.540909 -3.707770 4.805774 9.605451 7.007370 -0.051803 0.133279 -0.039038 -5.559857 -47.500633 8.622270 28.862282 59.523045 29.110997 -8.004662 41.327183 4.259663 0.583361 -22.058248 -7.561559
-19.312601 58.090785 71.975946 169.698994 -30.451305 -3.490733 4.501677 18.682830 6.026695 0.415028 2.299427 0.464404 0.691058 3.788615 0.773362 3.435049 16.271799 3.784509 2.261529 13.011555 -2.685595 5.368155 -11.451566 -6.001201 2.593092 -3.837696 -1.356476 8.244069 -13.692949 -17.595088 -82.637958 -87.114144 118.547259 13.942698 -9.262123 -34.075554 -6.355520 -4.228372 -2.681890 10.814839 -2.094013 5.785490 35.967004 -73.134177 -76.495825 -2.626706 5.513798 8.060033 11.231624 -41.535722 0.642067 -5.217957 65.528776 -3.704867 4.816232 9.611949 7.024819 -0.054125 0.131655 -0.041880 -5.535336 -47.503441 8.596860 28.854624 59.514581 29.108642 -7.981236 41.332121 4.285488 0.570641 -22.062459 -7.568390
